<svg xmlns="http://www.w3.org/2000/svg" viewBox="0 0 550 140" width="550" height="140">
  <g transform="translate(20, 10)">
    <path d="M 60 10 L 15 115 L 38 115 L 60 62 Z" fill="#2D3748" />
    <path d="M 60 10 L 105 115 L 82 115 L 60 62 Z" fill="#A0AEC0" />
    <path d="M 60 10 L 53 26 L 60 31 Z" fill="#B7791F" opacity="0.8" />
    <path d="M 60 10 L 67 26 L 60 31 Z" fill="#975A16" opacity="0.6" />
    <path d="M 15 115 L 24 95 L 38 115 Z" fill="#B7791F" />
    <path d="M 105 115 L 96 95 L 82 115 Z" fill="#B7791F" />
    <g transform="translate(60, 74)">
      <circle cx="0" cy="0" r="22" fill="#E2E8F0" stroke="#A0AEC0" stroke-width="1.5" />
      <polygon points="0,-16 -5,-7 5,-7" fill="#4A5568" transform="rotate(0)"   opacity="0.9" />
      <polygon points="0,-16 -5,-7 5,-7" fill="#718096" transform="rotate(120)" opacity="0.9" />
      <polygon points="0,-16 -5,-7 5,-7" fill="#4A5568" transform="rotate(240)" opacity="0.9" />
      <circle cx="0" cy="0" r="10" fill="none" stroke="#B7791F" stroke-width="1" opacity="0.65" />
      <g transform="rotate(0)">
        <line x1="0" y1="-10" x2="0" y2="-5" stroke="#975A16" stroke-width="2" stroke-linecap="round" />
        <line x1="-2" y1="-9.5" x2="2" y2="-9.5" stroke="#B7791F" stroke-width="1" stroke-linecap="round" opacity="0.8" />
        <line x1="-1.5" y1="-7.5" x2="1.5" y2="-7.5" stroke="#B7791F" stroke-width="1" stroke-linecap="round" opacity="0.6" />
        <line x1="-1" y1="-5.5" x2="1" y2="-5.5" stroke="#975A16" stroke-width="0.8" stroke-linecap="round" opacity="0.5" />
      </g>
      <g transform="rotate(120)">
        <line x1="0" y1="-10" x2="0" y2="-5" stroke="#975A16" stroke-width="2" stroke-linecap="round" />
        <line x1="-2" y1="-9.5" x2="2" y2="-9.5" stroke="#B7791F" stroke-width="1" stroke-linecap="round" opacity="0.8" />
        <line x1="-1.5" y1="-7.5" x2="1.5" y2="-7.5" stroke="#B7791F" stroke-width="1" stroke-linecap="round" opacity="0.6" />
        <line x1="-1" y1="-5.5" x2="1" y2="-5.5" stroke="#975A16" stroke-width="0.8" stroke-linecap="round" opacity="0.5" />
      </g>
      <g transform="rotate(240)">
        <line x1="0" y1="-10" x2="0" y2="-5" stroke="#975A16" stroke-width="2" stroke-linecap="round" />
        <line x1="-2" y1="-9.5" x2="2" y2="-9.5" stroke="#B7791F" stroke-width="1" stroke-linecap="round" opacity="0.8" />
        <line x1="-1.5" y1="-7.5" x2="1.5" y2="-7.5" stroke="#B7791F" stroke-width="1" stroke-linecap="round" opacity="0.6" />
        <line x1="-1" y1="-5.5" x2="1" y2="-5.5" stroke="#975A16" stroke-width="0.8" stroke-linecap="round" opacity="0.5" />
      </g>
      <circle cx="0" cy="0" r="4.5" fill="#CBD5E0" stroke="#718096" stroke-width="1" />
      <circle cx="0" cy="0" r="2" fill="#718096" />
      <circle cx="0" cy="0" r="21" fill="none" stroke="#CBD5E0" stroke-width="1" opacity="0.5" />
    </g>
  </g>
  <g transform="translate(155, 0)">
    <text x="0" y="76" font-family="'Inter', 'Plus Jakarta Sans', 'Segoe UI', sans-serif" font-size="58" font-weight="800" fill="#1A202C" letter-spacing="1.5">ARRAS</text>
    <text x="3" y="108" font-family="'Inter', 'Plus Jakarta Sans', 'Segoe UI', sans-serif" font-size="19" font-weight="400" fill="#718096" letter-spacing="10.5">INDUSTRIES</text>
  </g>
</svg>
