<svg width="960" height="180" viewBox="0 0 960 180" xmlns="http://www.w3.org/2000/svg">
  <!-- Hex A mark -->
  <g transform="translate(20, 16) scale(0.28)">
    <polygon points="256,52 438,158 438,354 256,460 74,354 74,158" fill="none" stroke="#22D3EE" stroke-width="14" opacity="0.35"/>
    <polygon points="256,92 404,178 404,334 256,420 108,334 108,178" fill="none" stroke="#ffffff" stroke-width="5" opacity="0.12"/>
    <path d="M 256 100 L 380 390 L 340 390 L 310 310 L 202 310 L 172 390 L 132 390 Z" fill="#ffffff"/>
    <rect x="195" y="268" width="122" height="12" rx="2" fill="#22D3EE"/>
    <path d="M 256 168 L 296 268 L 216 268 Z" fill="#0a0a0f"/>
    <circle cx="256" cy="100" r="6" fill="#22D3EE" opacity="0.8"/>
  </g>
  <!-- ARRAS -->
  <text x="175" y="100" font-family="'Barlow Condensed',Impact,'Arial Narrow',sans-serif" font-size="96" font-weight="800" letter-spacing="6" fill="#ffffff">ARRAS</text>
  <!-- Double speedlines -->
  <line x1="175" y1="112" x2="880" y2="112" stroke="#22D3EE" stroke-width="3"/>
  <line x1="175" y1="120" x2="840" y2="120" stroke="#22D3EE" stroke-width="1.5" opacity="0.5"/>
  <!-- Arrow tip -->
  <polygon points="880,112 920,104 920,120" fill="#22D3EE"/>
  <!-- INDUSTRIES -->
  <text x="178" y="152" font-family="'Barlow Condensed',Impact,'Arial Narrow',sans-serif" font-size="32" font-weight="400" letter-spacing="16" fill="#8a8a96">INDUSTRIES</text>
  <!-- Angled slash -->
  <line x1="660" y1="128" x2="690" y2="155" stroke="#22D3EE" stroke-width="2" opacity="0.4"/>
</svg>
